<svg xmlns="http://www.w3.org/2000/svg" viewBox="0 0 1120 300"><rect width="1120" height="300" fill="#ffffff"/><text x="34" y="38" fill="#10213d" font-size="25" font-weight="900">Sankey Energy Flow: One LLM Request</text><rect x="34" y="141.3" width="104" height="57.4" rx="12" fill="#0d1b2f" stroke="#0e7490" stroke-width="3"/><text x="86.0" y="166.0" text-anchor="middle" fill="#10213d" font-size="13" font-weight="800">Prompt</text><text x="86.0" y="186.0" text-anchor="middle" fill="#8aa0bd" font-size="12">7% signal</text><rect x="172" y="139.1" width="104" height="61.8" rx="12" fill="#0d1b2f" stroke="#ca8a04" stroke-width="3"/><text x="224.0" y="166.0" text-anchor="middle" fill="#10213d" font-size="13" font-weight="800">CPU tokenization</text><text x="224.0" y="186.0" text-anchor="middle" fill="#8aa0bd" font-size="12">9% signal</text><path d="M 142 170.0 C 173 170.0, 137 170.0, 168 170.0" fill="none" stroke="#ca8a04" stroke-width="5.0" opacity=".78"/><rect x="310" y="143.5" width="104" height="53.0" rx="12" fill="#0d1b2f" stroke="#1d4ed8" stroke-width="3"/><text x="362.0" y="166.0" text-anchor="middle" fill="#10213d" font-size="13" font-weight="800">RAM transfer</text><text x="362.0" y="186.0" text-anchor="middle" fill="#8aa0bd" font-size="12">5% signal</text><path d="M 280 170.0 C 311 170.0, 275 170.0, 306 170.0" fill="none" stroke="#1d4ed8" stroke-width="5.0" opacity=".78"/><rect x="448" y="134.7" width="104" height="70.6" rx="12" fill="#0d1b2f" stroke="#7e22ce" stroke-width="3"/><text x="500.0" y="166.0" text-anchor="middle" fill="#10213d" font-size="13" font-weight="800">VRAM load</text><text x="500.0" y="186.0" text-anchor="middle" fill="#8aa0bd" font-size="12">13% signal</text><path d="M 418 170.0 C 449 170.0, 413 170.0, 444 170.0" fill="none" stroke="#7e22ce" stroke-width="5.0" opacity=".78"/><rect x="586" y="107.2" width="142" height="125.6" rx="12" fill="#0d1b2f" stroke="#15803d" stroke-width="3"/><text x="657.0" y="166.0" text-anchor="middle" fill="#10213d" font-size="13" font-weight="800">Transformer</text><text x="657.0" y="186.0" text-anchor="middle" fill="#8aa0bd" font-size="12">38% signal</text><path d="M 556 170.0 C 587 170.0, 551 170.0, 582 170.0" fill="none" stroke="#15803d" stroke-width="14.6" opacity=".78"/><rect x="762" y="133.6" width="104" height="72.8" rx="12" fill="#0d1b2f" stroke="#ea580c" stroke-width="3"/><text x="814.0" y="166.0" text-anchor="middle" fill="#10213d" font-size="13" font-weight="800">KV cache</text><text x="814.0" y="186.0" text-anchor="middle" fill="#8aa0bd" font-size="12">14% signal</text><path d="M 732 170.0 C 763 170.0, 727 170.0, 758 170.0" fill="none" stroke="#ea580c" stroke-width="5.4" opacity=".78"/><rect x="900" y="140.2" width="104" height="59.6" rx="12" fill="#0d1b2f" stroke="#be185d" stroke-width="3"/><text x="952.0" y="166.0" text-anchor="middle" fill="#10213d" font-size="13" font-weight="800">Sampling</text><text x="952.0" y="186.0" text-anchor="middle" fill="#8aa0bd" font-size="12">8% signal</text><path d="M 870 170.0 C 901 170.0, 865 170.0, 896 170.0" fill="none" stroke="#be185d" stroke-width="5.0" opacity=".78"/><rect x="1038" y="142.4" width="104" height="55.2" rx="12" fill="#0d1b2f" stroke="#0e7490" stroke-width="3"/><text x="1090.0" y="166.0" text-anchor="middle" fill="#10213d" font-size="13" font-weight="800">Response</text><text x="1090.0" y="186.0" text-anchor="middle" fill="#8aa0bd" font-size="12">6% signal</text><path d="M 1008 170.0 C 1039 170.0, 1003 170.0, 1034 170.0" fill="none" stroke="#0e7490" stroke-width="5.0" opacity=".78"/><text x="34" y="268" fill="#8aa0bd" font-size="14">Stage widths are illustrative; benchmark CSVs provide measured latency, power, VRAM, and cost columns.</text></svg>